<svg width="18" height="18" viewBox="0 0 18 18" fill="none" xmlns="http://www.w3.org/2000/svg">
<g id="ph:arrow-left-bold">
<path id="Vector" d="M16.0312 9.00003C16.0312 9.2238 15.9423 9.43842 15.7841 9.59665C15.6258 9.75488 15.4112 9.84378 15.1874 9.84378H4.8515L8.474 13.4656C8.6325 13.6241 8.72155 13.8391 8.72155 14.0632C8.72155 14.2874 8.6325 14.5024 8.474 14.6609C8.31549 14.8194 8.1005 14.9084 7.87634 14.9084C7.65217 14.9084 7.43719 14.8194 7.27868 14.6609L2.21618 9.59839C2.13752 9.52 2.07511 9.42686 2.03252 9.3243C1.98994 9.22174 1.96802 9.11178 1.96802 9.00073C1.96802 8.88968 1.98994 8.77972 2.03252 8.67717C2.07511 8.57461 2.13752 8.48146 2.21618 8.40307L7.27868 3.34057C7.35717 3.26209 7.45034 3.19983 7.55289 3.15736C7.65544 3.11488 7.76534 3.09302 7.87634 3.09302C7.98733 3.09302 8.09724 3.11488 8.19979 3.15736C8.30233 3.19983 8.39551 3.26209 8.474 3.34057C8.55248 3.41906 8.61474 3.51224 8.65721 3.61478C8.69969 3.71733 8.72155 3.82724 8.72155 3.93823C8.72155 4.04923 8.69969 4.15913 8.65721 4.26168C8.61474 4.36423 8.55248 4.4574 8.474 4.53589L4.8515 8.15628H15.1874C15.4112 8.15628 15.6258 8.24517 15.7841 8.40341C15.9423 8.56164 16.0312 8.77625 16.0312 9.00003Z" fill="#3390EC"/>
</g>
</svg>
