<svg width="50" height="68" viewBox="0 -18 50 68" fill="none" xmlns="http://www.w3.org/2000/svg">
<g id="Group 34265">
<g id="heart" filter="url(#filter0_d_12_30)">
<path fill-rule="evenodd" clip-rule="evenodd" d="M32.276 15.7169C32.5027 15.9437 32.6297 16.2551 32.6297 16.5725C32.6297 16.8899 32.5027 17.2044 32.276 17.4281C32.0523 17.6548 31.7409 17.7818 31.4204 17.7818C31.103 17.7818 30.7916 17.6548 30.5682 17.4281C30.3414 17.2044 30.2111 16.893 30.2111 16.5725C30.2111 16.2551 30.3414 15.9437 30.5682 15.7169C30.7916 15.4932 31.103 15.3632 31.4204 15.3632C31.7409 15.3632 32.0523 15.4932 32.276 15.7169ZM33.736 13.9598C33.7747 14.543 33.3333 15.047 32.7501 15.0854C32.7265 15.0869 32.7029 15.0878 32.6793 15.0878C32.1267 15.0878 31.6614 14.6588 31.6245 14.0992C31.5112 12.3844 30.3904 12.1029 30.1667 12.0639C29.5878 11.9847 29.1917 11.4523 29.2709 10.8734C29.3504 10.2941 29.8928 9.89232 30.4718 9.97002C31.519 10.1136 33.5494 11.1322 33.736 13.9598ZM37.3191 10.531C36.0859 7.77858 33.4802 6 30.6809 6C27.8835 6 26.069 7.23047 24.9999 8.56342C23.9309 7.23047 22.1163 6 19.3192 6C16.52 6 13.9142 7.77858 12.6808 10.531C11.3965 13.397 11.9506 16.5893 14.1631 19.0711C19.4625 25.016 24.1459 29.2307 24.1924 29.2725C24.4222 29.4786 24.7112 29.5814 24.9999 29.5814C25.289 29.5814 25.5777 29.4786 25.8074 29.2725C25.854 29.2307 30.5373 25.016 35.8368 19.0711C38.0492 16.5893 38.6037 13.397 37.3191 10.531Z" fill="#FA5F7D"/>
</g>
</g>
<defs>
<filter id="filter0_d_12_30" x="0" y="0" width="50" height="47.5815" filterUnits="userSpaceOnUse" color-interpolation-filters="sRGB">
<feFlood flood-opacity="0" result="BackgroundImageFix"/>
<feColorMatrix in="SourceAlpha" type="matrix" values="0 0 0 0 0 0 0 0 0 0 0 0 0 0 0 0 0 0 127 0" result="hardAlpha"/>
<feOffset dy="6"/>
<feGaussianBlur stdDeviation="6"/>
<feColorMatrix type="matrix" values="0 0 0 0 1 0 0 0 0 0.317647 0 0 0 0 0.443137 0 0 0 0.1 0"/>
<feBlend mode="normal" in2="BackgroundImageFix" result="effect1_dropShadow_12_30"/>
<feBlend mode="normal" in="SourceGraphic" in2="effect1_dropShadow_12_30" result="shape"/>
</filter>
</defs>
</svg>
