<svg width="20" height="20" viewBox="0 0 20 20" fill="none" xmlns="http://www.w3.org/2000/svg">
<g clip-path="url(#clip0_14_103)">
<path fill-rule="evenodd" clip-rule="evenodd" d="M10.0391 0.0117925C10.457 0.019605 10.8945 0.0547612 11.0742 0.0899175C11.2461 0.121167 11.5352 0.187574 11.7188 0.234449C11.9023 0.281324 12.2266 0.390699 12.4414 0.47273C12.6562 0.558668 12.9648 0.699292 13.125 0.78523C13.2852 0.875074 13.5586 1.03914 13.7305 1.15242C13.9023 1.26961 14.1914 1.49226 14.375 1.65242C14.5586 1.81648 14.8125 2.06648 14.9414 2.21101C15.0703 2.35945 15.25 2.5782 15.3438 2.7032C15.4336 2.8282 15.5742 3.03914 15.6562 3.17195C15.7422 3.30867 15.8672 3.53132 15.9375 3.67195C16.0078 3.81257 16.125 4.07429 16.1953 4.25789C16.2656 4.44148 16.3594 4.73836 16.4062 4.92195C16.4531 5.10554 16.5234 5.4532 16.5664 5.69148C16.6133 5.96882 16.6406 6.31648 16.6406 6.62898C16.6406 6.92976 16.6094 7.30867 16.5664 7.5782C16.5234 7.82429 16.4531 8.17585 16.4062 8.35945C16.3594 8.54304 16.2578 8.85164 16.1836 9.04304C16.1055 9.23445 15.9922 9.50007 15.9258 9.62898C15.8633 9.75789 15.7383 9.97664 15.6523 10.1173C15.5664 10.2579 15.3945 10.504 15.2734 10.6641C15.1523 10.8243 14.9023 11.1055 14.7227 11.2891C14.543 11.4727 14.2617 11.7305 14.1016 11.8555C13.9414 11.9844 13.6328 12.1954 13.418 12.3243C13.2031 12.4532 12.8359 12.6407 12.5977 12.7423C12.3594 12.8399 11.9922 12.9688 11.7773 13.0274C11.5625 13.086 11.2539 13.1563 10.8008 13.2266L10.7812 15.4688H11.6523C12.4102 15.4688 12.5391 15.4805 12.6758 15.543C12.7617 15.5821 12.8711 15.6563 12.918 15.7071C12.9648 15.7579 13.0312 15.8673 13.0625 15.9493C13.0977 16.0274 13.125 16.1563 13.125 16.2305C13.125 16.3048 13.0977 16.4337 13.0625 16.5157C13.0312 16.5938 12.9492 16.7188 12.8789 16.7891C12.8047 16.8673 12.6758 16.9415 12.5586 16.9766C12.4141 17.0157 12.1523 17.0313 10.7812 17.0313L10.7617 19.4727L10.6641 19.629C10.6094 19.711 10.4883 19.8321 10.3906 19.8907C10.2539 19.9766 10.168 20.0001 10 20.0001C9.83203 20.0001 9.74609 19.9766 9.60938 19.8907C9.51172 19.8321 9.39062 19.711 9.23828 19.4727L9.21875 17.0313H8.42578C7.84766 17.0313 7.58594 17.0157 7.44141 16.9766C7.32422 16.9415 7.19531 16.8673 7.12109 16.7891C7.05078 16.7188 6.96875 16.5938 6.9375 16.5118C6.90234 16.4337 6.875 16.3048 6.875 16.2305C6.875 16.1563 6.90234 16.0274 6.9375 15.9454C6.96875 15.8673 7.03516 15.7579 7.08203 15.7071C7.12891 15.6563 7.23828 15.5821 7.32422 15.543C7.46094 15.4805 7.58984 15.4688 9.21875 15.4688L9.19922 13.2266L8.90625 13.1798C8.74609 13.1563 8.4375 13.086 8.22266 13.0274C8.00781 12.9688 7.64062 12.8399 7.40234 12.7423C7.16406 12.6407 6.79688 12.4532 6.58203 12.3243C6.36719 12.1954 6.05859 11.9844 5.89844 11.8555C5.73828 11.7305 5.45703 11.4727 5.27734 11.2891C5.09766 11.1055 4.84766 10.8243 4.72656 10.6641C4.60547 10.504 4.43359 10.2579 4.34766 10.1173C4.26172 9.97664 4.13672 9.75789 4.07422 9.62898C4.00781 9.50007 3.89453 9.23445 3.81641 9.04304C3.74219 8.85164 3.64062 8.54304 3.59375 8.35945C3.54688 8.17585 3.47656 7.8282 3.43359 7.58601C3.38672 7.31257 3.35938 6.96492 3.35938 6.64851C3.35938 6.35164 3.39063 5.97273 3.43359 5.7032C3.47656 5.4571 3.54688 5.10554 3.59375 4.92195C3.64062 4.73836 3.73438 4.44148 3.80469 4.25789C3.875 4.07429 3.99219 3.81257 4.0625 3.67195C4.13281 3.53132 4.25781 3.30867 4.34375 3.17195C4.42578 3.03914 4.56641 2.8282 4.65625 2.7032C4.75 2.5782 4.92969 2.35945 5.05859 2.21101C5.1875 2.06648 5.44141 1.81648 5.625 1.65242C5.80859 1.49226 6.09766 1.26961 6.26953 1.15242C6.44141 1.03914 6.71484 0.875074 6.875 0.78523C7.03516 0.699292 7.34375 0.558668 7.55859 0.47273C7.77344 0.390699 8.09766 0.281324 8.28125 0.234449C8.46484 0.187574 8.76172 0.125074 8.94531 0.0938237C9.12891 0.0625737 9.28516 0.0274175 9.29688 0.0156987C9.30469 0.00397999 9.64062 0.00397999 10.0391 0.0117925ZM8.84766 1.69929C8.69922 1.73445 8.44922 1.80476 8.30078 1.85945C8.15234 1.91414 7.89453 2.02351 7.73438 2.10164C7.57422 2.18367 7.30859 2.33601 7.14844 2.44148C6.98828 2.54695 6.66016 2.8282 6.42578 3.06648C6.1875 3.30085 5.90625 3.62898 5.80078 3.78914C5.69531 3.94929 5.54297 4.21492 5.46094 4.37507C5.38281 4.53523 5.26563 4.81648 5.19922 5.00007C5.13672 5.18367 5.05469 5.49226 5.01562 5.68367C4.96484 5.93367 4.94531 6.21101 4.94531 6.6407C4.94531 7.06648 4.96484 7.34382 5.01172 7.5782C5.05078 7.76179 5.11719 8.02351 5.16406 8.16414C5.20703 8.30476 5.29687 8.54304 5.35937 8.69148C5.42578 8.83992 5.53906 9.07039 5.61719 9.19929C5.69531 9.3282 5.83594 9.53914 5.92969 9.66804C6.02734 9.79695 6.22266 10.0235 6.36328 10.168C6.50391 10.3165 6.75391 10.5391 6.91406 10.6602C7.07422 10.7852 7.3125 10.9454 7.44141 11.0196C7.57031 11.0938 7.80078 11.211 7.94922 11.2774C8.09766 11.3477 8.38281 11.4493 8.57422 11.504C8.76562 11.5587 9.10938 11.6329 9.33594 11.6602C9.5625 11.6915 9.85938 11.7188 10 11.7188C10.1406 11.7188 10.4375 11.6915 10.6641 11.6602C10.8906 11.6329 11.2344 11.5587 11.4258 11.504C11.6172 11.4493 11.8984 11.3477 12.0508 11.2774C12.2031 11.211 12.4297 11.0938 12.5586 11.0196C12.6875 10.9454 12.9258 10.7852 13.0859 10.6602C13.2461 10.5391 13.4961 10.3165 13.6367 10.168C13.7773 10.0235 13.9727 9.79695 14.0703 9.66804C14.1641 9.53914 14.3047 9.3282 14.3828 9.19929C14.4609 9.07039 14.5742 8.83992 14.6406 8.69148C14.7031 8.54304 14.793 8.30476 14.8359 8.16414C14.8828 8.02351 14.9492 7.76179 14.9883 7.5782C15.0352 7.34382 15.0547 7.06648 15.0547 6.6407C15.0547 6.21101 15.0352 5.93367 14.9844 5.68367C14.9453 5.49226 14.8633 5.18367 14.8008 5.00007C14.7344 4.81648 14.6172 4.53523 14.5391 4.37507C14.457 4.21492 14.3047 3.94929 14.1992 3.78914C14.0938 3.62898 13.8125 3.30085 13.5742 3.06648C13.3398 2.8282 13.0117 2.54695 12.8516 2.44148C12.6914 2.33601 12.4258 2.18367 12.2656 2.10164C12.1055 2.02351 11.8516 1.91414 11.6992 1.85945C11.5469 1.80476 11.2578 1.72273 11.0547 1.67976C10.8203 1.62898 10.4883 1.59382 10.1562 1.5821C9.86719 1.57429 9.51562 1.5821 9.375 1.60164C9.23438 1.62117 8.99609 1.66804 8.84766 1.69929Z" fill="#FA5F7D"/>
</g>
<defs>
</defs>
</svg>
