<svg width="24" height="24" viewBox="-3 -3 24 24" fill="none" xmlns="http://www.w3.org/2000/svg">
<g id="icon_location">
<g id="placeholder-3">
<g id="Shape">
<path fill-rule="evenodd" clip-rule="evenodd" d="M2.99976 7.59518C2.99976 4.50818 5.69812 2 9.00622 2C12.3143 2 15.0127 4.50818 14.9997 7.59518C14.9997 7.99311 14.9608 8.39104 14.87 8.77692C14.87 8.78897 14.8667 8.80103 14.8635 8.81309C14.8603 8.82515 14.857 8.83721 14.857 8.84927C14.2213 11.4445 9.92121 15.3643 9.41232 15.8281C9.39155 15.8471 9.37709 15.8603 9.36946 15.8674C9.26568 15.9518 9.13595 16 9.00622 16C8.87649 16 8.74676 15.9638 8.64298 15.8674C8.44838 15.6985 3.7911 11.5504 3.12949 8.78898C3.12949 8.76906 3.12555 8.7528 3.12202 8.73818C3.11913 8.72625 3.11651 8.71541 3.11651 8.70457C3.03867 8.34281 2.99976 7.96899 2.99976 7.59518ZM13.8327 8.63232V8.59615C13.9105 8.27057 13.9495 7.93293 13.9495 7.58323C13.9495 5.03887 11.7181 2.97686 8.99381 2.97686C6.26949 2.97686 4.05112 5.05093 4.05112 7.58323C4.05112 7.89675 4.09004 8.21027 4.15491 8.5238C4.16788 8.54791 4.16788 8.55997 4.16788 8.58409C4.66085 10.634 7.90408 13.7934 9.00678 14.8184C10.1095 13.7934 13.3397 10.634 13.8327 8.63232Z" fill="#5B6378"/>
<path d="M14.9997 7.59518L14.8997 7.59476V7.59518H14.9997ZM14.87 8.77692L14.7726 8.75401L14.77 8.76531V8.77692H14.87ZM14.8635 8.81309L14.9601 8.83907L14.9601 8.83906L14.8635 8.81309ZM14.857 8.84927L14.9541 8.87306L14.957 8.86134V8.84927H14.857ZM9.41232 15.8281L9.34495 15.7542L9.34495 15.7542L9.41232 15.8281ZM9.36946 15.8674L9.4327 15.9451L9.43754 15.9406L9.36946 15.8674ZM8.64298 15.8674L8.7111 15.7941L8.70851 15.7918L8.64298 15.8674ZM3.12949 8.78898H3.02949V8.80079L3.03224 8.81228L3.12949 8.78898ZM3.12202 8.73818L3.02482 8.76168L3.02482 8.76168L3.12202 8.73818ZM3.11651 8.70457H3.21651V8.69393L3.21427 8.68353L3.11651 8.70457ZM13.8327 8.59615L13.7354 8.5729L13.7327 8.58436V8.59615H13.8327ZM13.8327 8.63232L13.9298 8.65624L13.9327 8.64446V8.63232H13.8327ZM4.15491 8.5238L4.05698 8.54406L4.05993 8.55833L4.06684 8.57117L4.15491 8.5238ZM4.16788 8.58409H4.06788V8.59595L4.07065 8.60747L4.16788 8.58409ZM9.00678 14.8184L8.9387 14.8916L9.00678 14.9549L9.07486 14.8916L9.00678 14.8184ZM9.00622 1.9C5.64976 1.9 2.89976 4.44633 2.89976 7.59518H3.09976C3.09976 4.57003 5.74649 2.1 9.00622 2.1V1.9ZM15.0997 7.5956C15.1129 4.44633 12.3626 1.9 9.00622 1.9V2.1C12.2661 2.1 14.9124 4.57004 14.8997 7.59476L15.0997 7.5956ZM14.9673 8.79982C15.0602 8.40529 15.0997 7.99954 15.0997 7.59518H14.8997C14.8997 7.98668 14.8614 8.3768 14.7726 8.75401L14.9673 8.79982ZM14.9601 8.83906C14.9626 8.82957 14.97 8.80451 14.97 8.77692H14.77C14.77 8.77415 14.7703 8.77319 14.7699 8.77523C14.7694 8.77761 14.7687 8.78054 14.7669 8.78713L14.9601 8.83906ZM14.957 8.84927C14.957 8.85203 14.9566 8.85299 14.9571 8.85096C14.9575 8.84858 14.9583 8.84564 14.9601 8.83907L14.7669 8.78712C14.7644 8.79661 14.757 8.82167 14.757 8.84927H14.957ZM9.47969 15.9021C9.73473 15.6696 10.9401 14.5709 12.1617 13.2046C12.7724 12.5215 13.3886 11.7701 13.8925 11.0254C14.3954 10.2821 14.791 9.53891 14.9541 8.87306L14.7599 8.82548C14.6051 9.45722 14.2249 10.1772 13.7268 10.9133C13.2298 11.6479 12.6199 12.3921 12.0126 13.0713C10.798 14.4297 9.59879 15.5229 9.34495 15.7542L9.47969 15.9021ZM9.43754 15.9406C9.44472 15.9339 9.45868 15.9212 9.47969 15.9021L9.34495 15.7542C9.32442 15.773 9.30947 15.7866 9.30138 15.7941L9.43754 15.9406ZM9.00622 16.1C9.16036 16.1 9.31209 16.0429 9.43256 15.9449L9.30636 15.7898C9.21927 15.8606 9.11153 15.9 9.00622 15.9V16.1ZM8.5749 15.9406C8.70158 16.0584 8.85797 16.1 9.00622 16.1V15.9C8.89501 15.9 8.79194 15.8693 8.71106 15.7941L8.5749 15.9406ZM3.03224 8.81228C3.20186 9.52023 3.62499 10.3092 4.16015 11.0926C4.69633 11.8776 5.34983 12.6639 5.98726 13.3675C7.26205 14.7747 8.47812 15.8567 8.57745 15.9429L8.70851 15.7918C8.61324 15.7092 7.40337 14.6328 6.13548 13.2332C5.50156 12.5335 4.85452 11.7546 4.3253 10.9798C3.79505 10.2035 3.38792 9.43843 3.22673 8.76568L3.03224 8.81228ZM3.02482 8.76168C3.02839 8.77645 3.02949 8.78226 3.02949 8.78898H3.22949C3.22949 8.75586 3.22272 8.72915 3.21922 8.71468L3.02482 8.76168ZM3.01651 8.70457C3.01651 8.72949 3.02255 8.75229 3.02482 8.76168L3.21922 8.71468C3.21764 8.70815 3.21697 8.70526 3.21655 8.70298C3.21621 8.70109 3.21651 8.70202 3.21651 8.70457H3.01651ZM2.89976 7.59518C2.89976 7.97588 2.93939 8.35675 3.01875 8.7256L3.21427 8.68353C3.13796 8.32887 3.09976 7.96211 3.09976 7.59518H2.89976ZM13.7327 8.59615V8.63232H13.9327V8.59615H13.7327ZM13.8495 7.58323C13.8495 7.92545 13.8114 8.25526 13.7354 8.5729L13.93 8.6194C14.0097 8.28587 14.0495 7.94041 14.0495 7.58323H13.8495ZM8.99381 3.07686C11.6701 3.07686 13.8495 5.10102 13.8495 7.58323H14.0495C14.0495 4.97672 11.7662 2.87686 8.99381 2.87686V3.07686ZM4.15112 7.58323C4.15112 5.11259 6.31806 3.07686 8.99381 3.07686V2.87686C6.22092 2.87686 3.95112 4.98927 3.95112 7.58323H4.15112ZM4.25283 8.50354C4.18902 8.19512 4.15112 7.88851 4.15112 7.58323H3.95112C3.95112 7.90499 3.99106 8.22543 4.05698 8.54406L4.25283 8.50354ZM4.26788 8.58409C4.26788 8.57414 4.26817 8.55574 4.26469 8.53629C4.26073 8.51425 4.25303 8.49512 4.24297 8.47642L4.06684 8.57117C4.06846 8.57419 4.06882 8.57524 4.06869 8.5749C4.06848 8.57431 4.06809 8.57307 4.06783 8.57159C4.0676 8.57033 4.06768 8.57008 4.06776 8.57202C4.06786 8.57445 4.06788 8.57753 4.06788 8.58409H4.26788ZM9.07486 14.7451C8.52478 14.2338 7.44131 13.1906 6.43449 12.0204C5.93106 11.4353 5.44803 10.8198 5.06069 10.2244C4.67252 9.62762 4.38445 9.05697 4.26511 8.56071L4.07065 8.60747C4.1978 9.13619 4.49999 9.72919 4.89304 10.3334C5.28691 10.9389 5.77603 11.5617 6.28288 12.1508C7.29659 13.329 8.38608 14.378 8.9387 14.8916L9.07486 14.7451ZM13.7356 8.60841C13.6164 9.09261 13.3292 9.65426 12.9421 10.2444C12.556 10.8332 12.0745 11.4442 11.5726 12.0263C10.569 13.1906 9.48869 14.2339 8.9387 14.7451L9.07486 14.8916C9.62757 14.3779 10.7138 13.329 11.7241 12.1569C12.2293 11.5709 12.7168 10.9527 13.1094 10.3541C13.5011 9.75681 13.8026 9.1729 13.9298 8.65624L13.7356 8.60841Z" fill="#5B6378"/>
</g>
<g id="Shape_2">
<path fill-rule="evenodd" clip-rule="evenodd" d="M7.00024 7C7.00024 5.90323 7.89057 5 9.00024 5C10.1099 5 11.0002 5.89032 11.0002 7C11.0002 8.10968 10.097 9 9.00024 9C7.90347 9 7.00024 8.09677 7.00024 7ZM8.04487 6.99996C8.04487 7.52899 8.47068 7.95479 8.99971 7.95479C9.52874 7.95479 9.95455 7.52899 9.95455 6.99996C9.95455 6.47092 9.52874 6.04512 8.99971 6.04512C8.47068 6.04512 8.04487 6.47092 8.04487 6.99996Z" fill="#5B6378"/>
<path d="M9.00024 4.9C7.83492 4.9 6.90024 5.84842 6.90024 7H7.10024C7.10024 5.95803 7.94621 5.1 9.00024 5.1V4.9ZM11.1002 7C11.1002 5.83509 10.1651 4.9 9.00024 4.9V5.1C10.0547 5.1 10.9002 5.94555 10.9002 7H11.1002ZM9.00024 9.1C10.1518 9.1 11.1002 8.16533 11.1002 7H10.9002C10.9002 8.05403 10.0422 8.9 9.00024 8.9V9.1ZM6.90024 7C6.90024 8.152 7.84824 9.1 9.00024 9.1V8.9C7.9587 8.9 7.10024 8.04155 7.10024 7H6.90024ZM8.99971 7.85479C8.52591 7.85479 8.14487 7.47376 8.14487 6.99996H7.94487C7.94487 7.58422 8.41545 8.05479 8.99971 8.05479V7.85479ZM9.85455 6.99996C9.85455 7.47376 9.47352 7.85479 8.99971 7.85479V8.05479C9.58397 8.05479 10.0546 7.58422 10.0546 6.99996H9.85455ZM8.99971 6.14512C9.47352 6.14512 9.85455 6.52615 9.85455 6.99996H10.0546C10.0546 6.4157 9.58397 5.94512 8.99971 5.94512V6.14512ZM8.14487 6.99996C8.14487 6.52615 8.52591 6.14512 8.99971 6.14512V5.94512C8.41545 5.94512 7.94487 6.4157 7.94487 6.99996H8.14487Z" fill="#5B6378"/>
</g>
</g>
</g>
</svg>
