<svg width="20" height="20" viewBox="0 0 20 20" fill="none" xmlns="http://www.w3.org/2000/svg">
<g clip-path="url(#clip0_14_101)">
<path fill-rule="evenodd" clip-rule="evenodd" d="M13.1055 0.0078125H19.3945L19.5703 0.113281C19.668 0.171875 19.7852 0.28125 19.8359 0.355469C19.8867 0.429687 19.9414 0.550781 19.9609 0.625C19.9844 0.707031 20 1.99219 20 3.78906C20 6.75391 19.9961 6.82031 19.918 6.99219C19.875 7.08984 19.8086 7.20312 19.7734 7.24219C19.7383 7.28125 19.6211 7.35547 19.5117 7.40625C19.4062 7.45703 19.2461 7.5 19.1602 7.5C19.0742 7.5 18.9336 7.46484 18.8477 7.42578C18.7617 7.38672 18.6406 7.30469 18.5781 7.24219C18.5156 7.17969 18.4375 7.06641 18.4023 6.99219C18.3477 6.875 18.3359 6.58594 18.3008 2.89062L13.3633 7.83203L13.5391 8.06641C13.6367 8.19531 13.8008 8.44141 13.9062 8.61328C14.0078 8.78516 14.1445 9.03125 14.2109 9.16016C14.2734 9.28906 14.3828 9.53516 14.4531 9.70703C14.5195 9.87891 14.6172 10.1523 14.668 10.3125C14.7187 10.4727 14.7969 10.7734 14.8398 10.9766C14.8828 11.1797 14.9375 11.5664 14.9648 11.8359C14.9922 12.1211 15 12.5273 14.9883 12.8125C14.9727 13.082 14.9258 13.5039 14.8867 13.75C14.8437 13.9961 14.7617 14.3594 14.707 14.5508C14.6484 14.7422 14.5469 15.0508 14.4766 15.2344C14.4062 15.418 14.2891 15.6797 14.2187 15.8203C14.1484 15.9609 14.0117 16.207 13.9141 16.3672C13.8164 16.5273 13.6172 16.8203 13.4766 17.0117C13.3359 17.2031 13.0273 17.5547 12.7891 17.7891C12.5547 18.0273 12.2031 18.3359 12.0117 18.4766C11.8203 18.6172 11.5273 18.8164 11.3672 18.9141C11.207 19.0156 10.9062 19.1758 10.7031 19.2734C10.5 19.3672 10.1562 19.5078 9.94141 19.582C9.72656 19.6562 9.38281 19.7539 9.17969 19.7969C8.97656 19.8398 8.65625 19.9062 8.46875 19.9375C8.25 19.9766 7.89844 20 7.5 20C7.10156 20 6.75 19.9766 6.53516 19.9375C6.34375 19.9062 6.02344 19.8398 5.82031 19.7969C5.61719 19.7539 5.27344 19.6562 5.05859 19.582C4.84375 19.5078 4.5 19.3672 4.29687 19.2734C4.09375 19.1758 3.79297 19.0156 3.63281 18.9141C3.47266 18.8164 3.18359 18.6172 2.98828 18.4766C2.79687 18.3359 2.44531 18.0273 2.21094 17.7891C1.97266 17.5547 1.66406 17.2031 1.52344 17.0117C1.38281 16.8203 1.18359 16.5273 1.08594 16.3672C0.988281 16.207 0.847656 15.9531 0.769531 15.8008C0.695312 15.6484 0.570312 15.3516 0.488281 15.1367C0.410156 14.9219 0.300781 14.5859 0.25 14.3945C0.199219 14.2031 0.128906 13.8594 0.0898437 13.6328C0.0429687 13.3437 0.0234375 13.0078 0.0234375 12.5C0.0234375 11.9922 0.0429687 11.6562 0.0898437 11.3672C0.128906 11.1406 0.199219 10.7969 0.25 10.6055C0.300781 10.4141 0.410156 10.0781 0.488281 9.86328C0.570312 9.64844 0.695312 9.34766 0.769531 9.19922C0.847656 9.05078 0.988281 8.79297 1.08594 8.63281C1.18359 8.47266 1.38281 8.17969 1.52344 7.98828C1.66406 7.79687 1.97266 7.44531 2.21094 7.21094C2.44531 6.97266 2.79687 6.66406 2.98828 6.52344C3.18359 6.38281 3.47266 6.18359 3.63281 6.08594C3.79297 5.98828 4.03906 5.85156 4.17969 5.78125C4.32031 5.71094 4.58203 5.59375 4.76562 5.52344C4.94922 5.45312 5.25781 5.35156 5.44922 5.29297C5.64062 5.23828 6.00391 5.15625 6.25 5.11328C6.49609 5.07422 6.91797 5.02734 7.1875 5.01172C7.47266 5 7.87891 5.00781 8.16406 5.03516C8.43359 5.0625 8.82031 5.11719 9.02344 5.16016C9.22656 5.20312 9.52734 5.28125 9.6875 5.33203C9.84766 5.38281 10.1211 5.48047 10.293 5.54687C10.4648 5.61719 10.7109 5.72656 10.8398 5.78906C10.9687 5.85547 11.2148 5.99219 11.3867 6.09375C11.5586 6.19922 11.8047 6.36328 12.168 6.63672L17.1094 1.69922L15.1289 1.67969C13.4141 1.66406 13.125 1.65234 13.0078 1.59766C12.9336 1.5625 12.8203 1.48437 12.7578 1.42187C12.6953 1.35937 12.6133 1.23828 12.5742 1.15234C12.5352 1.06641 12.5 0.925781 12.5 0.839844C12.5 0.753906 12.543 0.597656 12.5937 0.488281C12.6406 0.382812 12.7148 0.265625 12.7539 0.234375C12.793 0.203125 12.8867 0.136719 12.9648 0.0898437L13.1055 0.0078125ZM6.05469 6.85547C5.91406 6.89062 5.6875 6.96094 5.54687 7.01172C5.40625 7.0625 5.14453 7.17578 4.96094 7.26172C4.77734 7.34766 4.46875 7.52344 4.27734 7.65234C4.08203 7.78125 3.80078 7.99609 3.64844 8.13281C3.49609 8.26953 3.26953 8.49609 3.14062 8.63672C3.01562 8.77734 2.80078 9.05859 2.66406 9.26172C2.52734 9.46484 2.34375 9.78125 2.25781 9.96484C2.17187 10.1445 2.05859 10.4102 2.01172 10.5508C1.96094 10.6875 1.89062 10.918 1.85547 11.0586C1.82031 11.1953 1.76562 11.4609 1.73438 11.6445C1.70703 11.8242 1.67969 12.2109 1.67969 12.5039C1.67969 12.793 1.70703 13.1797 1.73438 13.3633C1.76562 13.543 1.82031 13.8086 1.85547 13.9492C1.89062 14.0859 1.96094 14.3164 2.01172 14.457C2.05859 14.5937 2.17187 14.8594 2.25781 15.043C2.34375 15.2227 2.52344 15.5312 2.64844 15.7266C2.77734 15.918 2.99609 16.1992 3.13281 16.3516C3.26562 16.5039 3.49219 16.7344 3.63672 16.8594C3.77734 16.9883 4.05859 17.2031 4.26172 17.3398C4.46094 17.4727 4.77734 17.6562 4.96094 17.7422C5.14453 17.832 5.40625 17.9414 5.54687 17.9922C5.6875 18.043 5.91406 18.1133 6.05469 18.1484C6.19531 18.1836 6.45703 18.2383 6.64062 18.2656C6.82422 18.2969 7.21094 18.3203 7.5 18.3203C7.78906 18.3203 8.17578 18.2969 8.35937 18.2656C8.54297 18.2383 8.80469 18.1836 8.94531 18.1484C9.08594 18.1133 9.3125 18.043 9.45312 17.9922C9.59375 17.9414 9.85547 17.832 10.0391 17.7422C10.2227 17.6562 10.5352 17.4727 10.7383 17.3398C10.9414 17.2031 11.2227 16.9883 11.3633 16.8594C11.5039 16.7344 11.7305 16.5039 11.8672 16.3516C12.0039 16.1992 12.2227 15.918 12.3477 15.7266C12.4766 15.5312 12.6523 15.2227 12.7422 15.043C12.8281 14.8594 12.9414 14.5937 12.9883 14.457C13.0391 14.3164 13.1094 14.0859 13.1445 13.9492C13.1797 13.8086 13.2344 13.543 13.2656 13.3633C13.293 13.1797 13.3203 12.793 13.3203 12.5039C13.3203 12.2109 13.293 11.8242 13.2656 11.6445C13.2344 11.4609 13.1758 11.1719 13.1289 11C13.0859 10.8281 12.9805 10.5117 12.8906 10.2969C12.8047 10.082 12.6523 9.76562 12.5508 9.59375C12.4531 9.42187 12.2617 9.14062 12.1328 8.96875C12 8.79687 11.7695 8.53125 11.6211 8.38281C11.4687 8.23047 11.207 8 11.0352 7.87109C10.8633 7.73828 10.582 7.55078 10.4102 7.44922C10.2383 7.35156 9.92187 7.19922 9.70703 7.10937C9.49219 7.02344 9.17578 6.91406 9.00391 6.87109C8.83203 6.82812 8.54297 6.76953 8.35937 6.73828C8.17187 6.70703 7.78125 6.68359 7.46094 6.6875C7.14844 6.69141 6.76172 6.71484 6.60156 6.74219C6.44141 6.76953 6.19531 6.82031 6.05469 6.85547Z" fill="#FA5F7D"/>
</g>
</svg>
