<svg width="24" height="24" viewBox="0 0 24 24" fill="none" xmlns="http://www.w3.org/2000/svg">
<g id="file (32) 1" clip-path="url(#clip0_12_39)">
<path id="Path 0" fill-rule="evenodd" clip-rule="evenodd" d="M2.46094 1.45781L16.7109 1.45312L16.8937 1.56094C16.9969 1.61719 17.1234 1.725 17.175 1.79531C17.2734 1.92656 17.2734 1.94063 17.2875 6.6375C17.2969 10.4953 17.2875 11.4 17.2313 11.6625C17.1984 11.8359 17.0953 12.1219 17.0109 12.3047C16.8984 12.5344 16.7437 12.7406 16.5 12.9891C16.275 13.2188 16.0453 13.3969 15.8672 13.4906C15.7125 13.5656 15.4688 13.6688 15.3281 13.7156C15.0844 13.7953 14.7703 13.8047 5.60156 13.8516L5.34375 13.9734C5.20312 14.0391 4.15781 14.7563 3.02344 15.5672C1.29844 16.7906 0.928125 17.0391 0.773438 17.0531C0.642187 17.0672 0.525 17.0438 0.384375 16.9734C0.276562 16.9219 0.145313 16.8047 0.09375 16.725C0.0046875 16.575 0.0046875 16.4531 0 10.2422C0 4.00312 0 3.90937 0.09375 3.53906C0.15 3.33281 0.257812 3.0375 0.342188 2.88281C0.426563 2.72812 0.628125 2.46563 0.796875 2.29688C0.965625 2.12813 1.2375 1.92188 1.40625 1.82812C1.575 1.73906 1.87969 1.62188 2.08594 1.56563L2.46094 1.45781ZM4.60312 5.49375C4.54219 5.55 4.4625 5.65781 4.425 5.72812C4.3875 5.79844 4.35938 5.925 4.35938 6.00937C4.35938 6.09375 4.39688 6.23437 4.44375 6.32344C4.48594 6.4125 4.59844 6.53437 4.6875 6.59531L4.85156 6.70312C13.2984 6.69844 13.3875 6.69844 13.5375 6.60469C13.6172 6.55312 13.7297 6.44531 13.7812 6.36094C13.8328 6.27656 13.875 6.12187 13.875 6.01875C13.875 5.90156 13.8375 5.775 13.7719 5.67188C13.7109 5.58281 13.6031 5.47031 13.5328 5.41406C13.4016 5.31562 13.3828 5.31562 9.19687 5.30625C6.69844 5.30156 4.93594 5.31562 4.85156 5.34375C4.77187 5.36719 4.65937 5.43281 4.60312 5.49375ZM4.60312 8.775C4.54219 8.83125 4.4625 8.93906 4.425 9.00937C4.3875 9.07969 4.35938 9.20625 4.35938 9.29062C4.35938 9.375 4.39688 9.51562 4.44375 9.60469C4.48594 9.69375 4.59844 9.81563 4.6875 9.87656L4.85156 9.98438C13.2984 9.97969 13.3875 9.97969 13.5375 9.88594C13.6172 9.83437 13.7297 9.72656 13.7812 9.64219C13.8328 9.55781 13.875 9.40312 13.875 9.3C13.875 9.18281 13.8375 9.05625 13.7719 8.95312C13.7109 8.86406 13.6031 8.75156 13.5328 8.69531C13.4016 8.59688 13.3828 8.59687 9.19687 8.5875C6.69844 8.58281 4.93594 8.59688 4.85156 8.625C4.77187 8.64844 4.65937 8.71406 4.60312 8.775ZM18.7078 6.92813L20.2641 6.94219C21.7125 6.96094 21.8438 6.96562 22.125 7.06406C22.2938 7.11562 22.5562 7.24687 22.7109 7.34531C22.8656 7.44375 23.0859 7.62187 23.1984 7.73438C23.3109 7.84688 23.4797 8.05781 23.5734 8.19844C23.6672 8.33906 23.8031 8.63437 24 9.25312L23.9766 22.0687L23.8781 22.2C23.8266 22.2703 23.7 22.3781 23.5969 22.4344C23.4984 22.4953 23.3625 22.5422 23.2969 22.5422C23.2313 22.5422 23.0953 22.4906 22.9922 22.4344C22.8891 22.3734 21.9375 21.7078 20.8828 20.9531C19.8234 20.1984 18.8672 19.5328 18.75 19.4719C18.6328 19.4156 18.4266 19.3453 18.2906 19.3125C18.1219 19.275 16.7062 19.2609 13.5703 19.2609C10.5047 19.2609 9.01406 19.2469 8.84531 19.2094C8.71406 19.1812 8.45156 19.0875 8.27344 19.0031C8.09062 18.9187 7.82812 18.7547 7.6875 18.6422C7.54219 18.525 7.32187 18.2766 7.18125 18.0656C7.04531 17.8594 6.88594 17.5547 6.83438 17.3859C6.75 17.1281 6.73125 16.9453 6.70312 15.2297H10.7672C14.1422 15.2297 14.9016 15.2203 15.2344 15.1641C15.4547 15.1219 15.7594 15.0469 15.9141 14.9953C16.0688 14.9437 16.3219 14.8359 16.4766 14.7562C16.6313 14.6766 16.9125 14.4938 17.1047 14.3484C17.2969 14.2031 17.5594 13.9547 17.6906 13.8C17.8219 13.6453 18.0094 13.3922 18.1031 13.2375C18.1969 13.0828 18.3375 12.7969 18.4172 12.6047C18.4922 12.4125 18.5906 12.0656 18.6328 11.8312C18.6891 11.4891 18.7031 10.9828 18.7078 9.16875V6.92813Z" fill="white"/>
</g>
<defs>
<clipPath id="clip0_12_39">
<rect width="24" height="24" fill="white"/>
</clipPath>
</defs>
</svg>
